<svg width="1071" height="212" viewBox="0 0 1071 212" fill="none" xmlns="http://www.w3.org/2000/svg">
<path d="M14.16 190.8C14.4533 190.8 14.6933 190.9 14.88 191.1C15.0667 191.287 15.16 191.533 15.16 191.84V204.12C15.16 204.427 15.0733 204.667 14.9 204.84C14.74 205.013 14.5133 205.1 14.22 205.1C13.94 205.1 13.72 205.013 13.56 204.84C13.4 204.667 13.32 204.427 13.32 204.12V194.82L9.4 202.28C9.14667 202.747 8.82 202.98 8.42 202.98C8.02 202.98 7.69333 202.747 7.44 202.28L3.5 194.9V204.12C3.5 204.427 3.42 204.667 3.26 204.84C3.1 205.013 2.87333 205.1 2.58 205.1C2.3 205.1 2.07333 205.013 1.9 204.84C1.74 204.653 1.66 204.413 1.66 204.12V191.84C1.66 191.533 1.75333 191.287 1.94 191.1C2.12667 190.9 2.36667 190.8 2.66 190.8C3.07333 190.8 3.40667 191.04 3.66 191.52L8.44 200.66L13.18 191.52C13.4333 191.04 13.76 190.8 14.16 190.8ZM22.4564 205.14C21.4964 205.14 20.6497 204.933 19.9164 204.52C19.1964 204.107 18.6364 203.52 18.2364 202.76C17.8497 201.987 17.6564 201.093 17.6564 200.08C17.6564 199.053 17.8497 198.16 18.2364 197.4C18.6364 196.627 19.1964 196.033 19.9164 195.62C20.6497 195.207 21.4964 195 22.4564 195C23.4164 195 24.2564 195.207 24.9764 195.62C25.7097 196.033 26.2697 196.627 26.6564 197.4C27.0564 198.16 27.2564 199.053 27.2564 200.08C27.2564 201.093 27.0564 201.987 26.6564 202.76C26.2697 203.52 25.7097 204.107 24.9764 204.52C24.2564 204.933 23.4164 205.14 22.4564 205.14ZM22.4564 203.54C23.3497 203.54 24.0297 203.247 24.4964 202.66C24.9764 202.073 25.2164 201.213 25.2164 200.08C25.2164 198.96 24.9764 198.107 24.4964 197.52C24.0164 196.92 23.3364 196.62 22.4564 196.62C21.5764 196.62 20.8964 196.92 20.4164 197.52C19.9364 198.107 19.6964 198.96 19.6964 200.08C19.6964 201.213 19.9297 202.073 20.3964 202.66C20.8764 203.247 21.5631 203.54 22.4564 203.54ZM34.7655 195C37.0988 195 38.2655 196.313 38.2655 198.94V204.14C38.2655 204.447 38.1721 204.687 37.9855 204.86C37.8121 205.02 37.5655 205.1 37.2455 205.1C36.9388 205.1 36.6921 205.013 36.5055 204.84C36.3321 204.667 36.2455 204.433 36.2455 204.14V199.04C36.2455 198.213 36.0788 197.607 35.7455 197.22C35.4255 196.833 34.9188 196.64 34.2255 196.64C33.4121 196.64 32.7588 196.893 32.2655 197.4C31.7721 197.907 31.5255 198.587 31.5255 199.44V204.14C31.5255 204.433 31.4321 204.667 31.2455 204.84C31.0721 205.013 30.8321 205.1 30.5255 205.1C30.2188 205.1 29.9721 205.013 29.7855 204.84C29.5988 204.667 29.5055 204.433 29.5055 204.14V196C29.5055 195.72 29.5988 195.493 29.7855 195.32C29.9855 195.133 30.2321 195.04 30.5255 195.04C30.8188 195.04 31.0521 195.127 31.2255 195.3C31.3988 195.473 31.4855 195.7 31.4855 195.98V196.8C31.8055 196.213 32.2521 195.767 32.8255 195.46C33.3988 195.153 34.0455 195 34.7655 195ZM49.0089 190.8C49.3156 190.8 49.5622 190.887 49.7489 191.06C49.9356 191.233 50.0289 191.467 50.0289 191.76V204.12C50.0289 204.427 49.9356 204.667 49.7489 204.84C49.5756 205.013 49.3356 205.1 49.0289 205.1C48.7222 205.1 48.4756 205.013 48.2889 204.84C48.1156 204.667 48.0289 204.427 48.0289 204.12V203.32C47.7356 203.907 47.3089 204.36 46.7489 204.68C46.1889 204.987 45.5422 205.14 44.8089 205.14C43.9689 205.14 43.2156 204.927 42.5489 204.5C41.8956 204.073 41.3822 203.473 41.0089 202.7C40.6489 201.927 40.4689 201.04 40.4689 200.04C40.4689 199.027 40.6489 198.14 41.0089 197.38C41.3822 196.62 41.8956 196.033 42.5489 195.62C43.2022 195.207 43.9556 195 44.8089 195C45.5422 195 46.1822 195.16 46.7289 195.48C47.2889 195.787 47.7156 196.227 48.0089 196.8V191.72C48.0089 191.44 48.0956 191.22 48.2689 191.06C48.4556 190.887 48.7022 190.8 49.0089 190.8ZM45.2889 203.54C46.1556 203.54 46.8289 203.24 47.3089 202.64C47.7889 202.04 48.0289 201.187 48.0289 200.08C48.0289 198.973 47.7889 198.12 47.3089 197.52C46.8422 196.92 46.1689 196.62 45.2889 196.62C44.4089 196.62 43.7222 196.92 43.2289 197.52C42.7489 198.107 42.5089 198.947 42.5089 200.04C42.5089 201.133 42.7556 201.993 43.2489 202.62C43.7422 203.233 44.4222 203.54 45.2889 203.54ZM60.4853 202.54C60.672 202.54 60.8253 202.613 60.9453 202.76C61.0653 202.907 61.1253 203.093 61.1253 203.32C61.1253 203.707 60.8853 204.033 60.4053 204.3C59.9386 204.567 59.4253 204.773 58.8653 204.92C58.3186 205.067 57.792 205.14 57.2853 205.14C55.7386 205.14 54.5186 204.693 53.6253 203.8C52.732 202.893 52.2853 201.66 52.2853 200.1C52.2853 199.1 52.4786 198.213 52.8653 197.44C53.2653 196.667 53.8186 196.067 54.5253 195.64C55.2453 195.213 56.0586 195 56.9653 195C58.272 195 59.3053 195.42 60.0653 196.26C60.8253 197.1 61.2053 198.233 61.2053 199.66C61.2053 200.193 60.9653 200.46 60.4853 200.46H54.3053C54.4386 202.527 55.432 203.56 57.2853 203.56C57.7786 203.56 58.2053 203.493 58.5653 203.36C58.9253 203.227 59.3053 203.053 59.7053 202.84C59.7453 202.813 59.852 202.76 60.0253 202.68C60.212 202.587 60.3653 202.54 60.4853 202.54ZM57.0053 196.48C56.232 196.48 55.612 196.727 55.1453 197.22C54.6786 197.713 54.3986 198.407 54.3053 199.3H59.4653C59.4253 198.393 59.192 197.7 58.7653 197.22C58.352 196.727 57.7653 196.48 57.0053 196.48ZM72.9447 205.14C71.9847 205.14 71.138 204.933 70.4047 204.52C69.6847 204.107 69.1247 203.52 68.7247 202.76C68.338 201.987 68.1447 201.093 68.1447 200.08C68.1447 199.053 68.338 198.16 68.7247 197.4C69.1247 196.627 69.6847 196.033 70.4047 195.62C71.138 195.207 71.9847 195 72.9447 195C73.9047 195 74.7447 195.207 75.4647 195.62C76.198 196.033 76.758 196.627 77.1447 197.4C77.5447 198.16 77.7447 199.053 77.7447 200.08C77.7447 201.093 77.5447 201.987 77.1447 202.76C76.758 203.52 76.198 204.107 75.4647 204.52C74.7447 204.933 73.9047 205.14 72.9447 205.14ZM72.9447 203.54C73.838 203.54 74.518 203.247 74.9847 202.66C75.4647 202.073 75.7047 201.213 75.7047 200.08C75.7047 198.96 75.4647 198.107 74.9847 197.52C74.5047 196.92 73.8247 196.62 72.9447 196.62C72.0647 196.62 71.3847 196.92 70.9047 197.52C70.4247 198.107 70.1847 198.96 70.1847 200.08C70.1847 201.213 70.418 202.073 70.8847 202.66C71.3647 203.247 72.0514 203.54 72.9447 203.54ZM85.1138 195.04C85.7538 195 86.0738 195.273 86.0738 195.86C86.0738 196.153 86.0004 196.373 85.8538 196.52C85.7071 196.667 85.4538 196.753 85.0938 196.78L84.4938 196.84C83.6538 196.92 83.0271 197.213 82.6138 197.72C82.2138 198.227 82.0138 198.84 82.0138 199.56V204.14C82.0138 204.46 81.9204 204.7 81.7338 204.86C81.5471 205.02 81.3071 205.1 81.0138 205.1C80.7204 205.1 80.4738 205.02 80.2738 204.86C80.0871 204.7 79.9938 204.46 79.9938 204.14V196C79.9938 195.693 80.0871 195.46 80.2738 195.3C80.4738 195.127 80.7204 195.04 81.0138 195.04C81.2804 195.04 81.5004 195.127 81.6738 195.3C81.8604 195.46 81.9538 195.687 81.9538 195.98V196.94C82.2204 196.353 82.6071 195.907 83.1138 195.6C83.6204 195.293 84.1938 195.113 84.8338 195.06L85.1138 195.04ZM95.2027 195.04C95.5093 195.04 95.7493 195.133 95.9227 195.32C96.1093 195.493 96.2027 195.727 96.2027 196.02V204.22C96.2027 205.713 95.8027 206.84 95.0027 207.6C94.216 208.36 93.0493 208.74 91.5027 208.74C90.0627 208.74 88.8627 208.467 87.9027 207.92C87.4093 207.64 87.1627 207.307 87.1627 206.92C87.1627 206.693 87.2227 206.507 87.3427 206.36C87.476 206.213 87.636 206.14 87.8227 206.14C87.996 206.14 88.2693 206.24 88.6427 206.44C89.1227 206.667 89.5693 206.84 89.9827 206.96C90.396 207.093 90.8893 207.16 91.4627 207.16C93.3027 207.16 94.2227 206.233 94.2227 204.38V202.84C93.9427 203.427 93.516 203.887 92.9427 204.22C92.3693 204.54 91.7027 204.7 90.9427 204.7C90.0893 204.7 89.3293 204.5 88.6627 204.1C87.996 203.7 87.476 203.133 87.1027 202.4C86.7427 201.667 86.5627 200.82 86.5627 199.86C86.5627 198.9 86.7493 198.053 87.1227 197.32C87.496 196.587 88.0093 196.02 88.6627 195.62C89.3293 195.207 90.0893 195 90.9427 195C91.6893 195 92.3427 195.16 92.9027 195.48C93.476 195.8 93.9093 196.253 94.2027 196.84V196C94.2027 195.707 94.2893 195.473 94.4627 195.3C94.6493 195.127 94.896 195.04 95.2027 195.04ZM91.4227 203.1C92.2893 203.1 92.9693 202.813 93.4627 202.24C93.956 201.667 94.2027 200.873 94.2027 199.86C94.2027 198.86 93.956 198.073 93.4627 197.5C92.9827 196.913 92.3027 196.62 91.4227 196.62C90.5427 196.62 89.8493 196.907 89.3427 197.48C88.8493 198.053 88.6027 198.847 88.6027 199.86C88.6027 200.873 88.856 201.667 89.3627 202.24C89.8693 202.813 90.556 203.1 91.4227 203.1ZM103.117 195C104.411 195 105.371 195.327 105.997 195.98C106.637 196.633 106.957 197.627 106.957 198.96V204.14C106.957 204.447 106.871 204.687 106.697 204.86C106.524 205.02 106.284 205.1 105.977 205.1C105.684 205.1 105.451 205.013 105.277 204.84C105.104 204.667 105.017 204.433 105.017 204.14V203.4C104.764 203.96 104.384 204.393 103.877 204.7C103.384 204.993 102.804 205.14 102.137 205.14C101.497 205.14 100.911 205.013 100.377 204.76C99.8439 204.493 99.4239 204.127 99.1172 203.66C98.8239 203.193 98.6772 202.673 98.6772 202.1C98.6772 201.393 98.8572 200.84 99.2172 200.44C99.5905 200.027 100.197 199.733 101.037 199.56C101.891 199.387 103.057 199.3 104.537 199.3H104.997V198.72C104.997 197.973 104.844 197.433 104.537 197.1C104.231 196.767 103.737 196.6 103.057 196.6C102.591 196.6 102.151 196.66 101.737 196.78C101.324 196.9 100.871 197.073 100.377 197.3C100.017 197.5 99.7639 197.6 99.6172 197.6C99.4172 197.6 99.2505 197.527 99.1172 197.38C98.9972 197.233 98.9372 197.047 98.9372 196.82C98.9372 196.62 98.9905 196.447 99.0972 196.3C99.2172 196.14 99.4039 195.987 99.6572 195.84C100.124 195.587 100.671 195.387 101.297 195.24C101.924 195.08 102.531 195 103.117 195ZM102.497 203.64C103.231 203.64 103.831 203.393 104.297 202.9C104.764 202.393 104.997 201.747 104.997 200.96V200.44H104.637C103.597 200.44 102.797 200.487 102.237 200.58C101.677 200.673 101.277 200.833 101.037 201.06C100.797 201.273 100.677 201.587 100.677 202C100.677 202.48 100.851 202.873 101.197 203.18C101.544 203.487 101.977 203.64 102.497 203.64ZM114.98 195C117.314 195 118.48 196.313 118.48 198.94V204.14C118.48 204.447 118.387 204.687 118.2 204.86C118.027 205.02 117.78 205.1 117.46 205.1C117.154 205.1 116.907 205.013 116.72 204.84C116.547 204.667 116.46 204.433 116.46 204.14V199.04C116.46 198.213 116.294 197.607 115.96 197.22C115.64 196.833 115.134 196.64 114.44 196.64C113.627 196.64 112.974 196.893 112.48 197.4C111.987 197.907 111.74 198.587 111.74 199.44V204.14C111.74 204.433 111.647 204.667 111.46 204.84C111.287 205.013 111.047 205.1 110.74 205.1C110.434 205.1 110.187 205.013 110 204.84C109.814 204.667 109.72 204.433 109.72 204.14V196C109.72 195.72 109.814 195.493 110 195.32C110.2 195.133 110.447 195.04 110.74 195.04C111.034 195.04 111.267 195.127 111.44 195.3C111.614 195.473 111.7 195.7 111.7 195.98V196.8C112.02 196.213 112.467 195.767 113.04 195.46C113.614 195.153 114.26 195 114.98 195ZM122.264 205.1C121.97 205.1 121.724 205.02 121.524 204.86C121.337 204.7 121.244 204.46 121.244 204.14V196.02C121.244 195.7 121.337 195.46 121.524 195.3C121.724 195.127 121.97 195.04 122.264 195.04C122.557 195.04 122.797 195.127 122.984 195.3C123.17 195.46 123.264 195.7 123.264 196.02V204.14C123.264 204.46 123.17 204.7 122.984 204.86C122.797 205.02 122.557 205.1 122.264 205.1ZM122.264 193.08C121.877 193.08 121.57 192.973 121.344 192.76C121.117 192.547 121.004 192.267 121.004 191.92C121.004 191.573 121.117 191.3 121.344 191.1C121.57 190.887 121.877 190.78 122.264 190.78C122.637 190.78 122.937 190.887 123.164 191.1C123.404 191.3 123.524 191.573 123.524 191.92C123.524 192.267 123.41 192.547 123.184 192.76C122.957 192.973 122.65 193.08 122.264 193.08ZM134.088 195.04C134.394 195.04 134.634 195.133 134.808 195.32C134.994 195.493 135.088 195.727 135.088 196.02V207.74C135.088 208.033 134.994 208.267 134.808 208.44C134.621 208.613 134.374 208.7 134.068 208.7C133.761 208.7 133.514 208.613 133.328 208.44C133.154 208.28 133.068 208.06 133.068 207.78V203.36C132.774 203.933 132.348 204.373 131.788 204.68C131.241 204.987 130.601 205.14 129.868 205.14C129.014 205.14 128.254 204.933 127.588 204.52C126.934 204.107 126.428 203.52 126.068 202.76C125.708 202 125.528 201.12 125.528 200.12C125.528 199.107 125.708 198.213 126.068 197.44C126.441 196.667 126.954 196.067 127.608 195.64C128.274 195.213 129.028 195 129.868 195C130.601 195 131.248 195.16 131.808 195.48C132.368 195.8 132.794 196.253 133.088 196.84V196.02C133.088 195.727 133.174 195.493 133.348 195.32C133.534 195.133 133.781 195.04 134.088 195.04ZM130.348 203.54C131.228 203.54 131.901 203.24 132.368 202.64C132.848 202.04 133.088 201.187 133.088 200.08C133.088 198.973 132.848 198.12 132.368 197.52C131.901 196.92 131.228 196.62 130.348 196.62C129.481 196.62 128.801 196.933 128.308 197.56C127.814 198.173 127.568 199.027 127.568 200.12C127.568 201.213 127.808 202.06 128.288 202.66C128.781 203.247 129.468 203.54 130.348 203.54ZM145.464 195.04C145.771 195.04 146.011 195.127 146.184 195.3C146.371 195.473 146.464 195.713 146.464 196.02V204.16C146.464 204.44 146.371 204.667 146.184 204.84C145.997 205.013 145.751 205.1 145.444 205.1C145.164 205.1 144.937 205.02 144.764 204.86C144.591 204.687 144.504 204.46 144.504 204.18V203.42C144.197 203.98 143.771 204.407 143.224 204.7C142.691 204.993 142.091 205.14 141.424 205.14C139.051 205.14 137.864 203.833 137.864 201.22V196.02C137.864 195.713 137.951 195.473 138.124 195.3C138.311 195.127 138.564 195.04 138.884 195.04C139.191 195.04 139.431 195.127 139.604 195.3C139.791 195.473 139.884 195.713 139.884 196.02V201.2C139.884 201.987 140.044 202.567 140.364 202.94C140.684 203.313 141.177 203.5 141.844 203.5C142.631 203.5 143.257 203.247 143.724 202.74C144.204 202.233 144.444 201.56 144.444 200.72V196.02C144.444 195.727 144.537 195.493 144.724 195.32C144.911 195.133 145.157 195.04 145.464 195.04ZM156.931 202.54C157.117 202.54 157.271 202.613 157.391 202.76C157.511 202.907 157.571 203.093 157.571 203.32C157.571 203.707 157.331 204.033 156.851 204.3C156.384 204.567 155.871 204.773 155.311 204.92C154.764 205.067 154.237 205.14 153.731 205.14C152.184 205.14 150.964 204.693 150.071 203.8C149.177 202.893 148.731 201.66 148.731 200.1C148.731 199.1 148.924 198.213 149.311 197.44C149.711 196.667 150.264 196.067 150.971 195.64C151.691 195.213 152.504 195 153.411 195C154.717 195 155.751 195.42 156.511 196.26C157.271 197.1 157.651 198.233 157.651 199.66C157.651 200.193 157.411 200.46 156.931 200.46H150.751C150.884 202.527 151.877 203.56 153.731 203.56C154.224 203.56 154.651 203.493 155.011 203.36C155.371 203.227 155.751 203.053 156.151 202.84C156.191 202.813 156.297 202.76 156.471 202.68C156.657 202.587 156.811 202.54 156.931 202.54ZM153.451 196.48C152.677 196.48 152.057 196.727 151.591 197.22C151.124 197.713 150.844 198.407 150.751 199.3H155.911C155.871 198.393 155.637 197.7 155.211 197.22C154.797 196.727 154.211 196.48 153.451 196.48Z" fill="black" fill-opacity="0.87"/>
<path d="M920.16 190.8C920.453 190.8 920.693 190.9 920.88 191.1C921.067 191.287 921.16 191.533 921.16 191.84V204.12C921.16 204.427 921.073 204.667 920.9 204.84C920.74 205.013 920.513 205.1 920.22 205.1C919.94 205.1 919.72 205.013 919.56 204.84C919.4 204.667 919.32 204.427 919.32 204.12V194.82L915.4 202.28C915.147 202.747 914.82 202.98 914.42 202.98C914.02 202.98 913.693 202.747 913.44 202.28L909.5 194.9V204.12C909.5 204.427 909.42 204.667 909.26 204.84C909.1 205.013 908.873 205.1 908.58 205.1C908.3 205.1 908.073 205.013 907.9 204.84C907.74 204.653 907.66 204.413 907.66 204.12V191.84C907.66 191.533 907.753 191.287 907.94 191.1C908.127 190.9 908.367 190.8 908.66 190.8C909.073 190.8 909.407 191.04 909.66 191.52L914.44 200.66L919.18 191.52C919.433 191.04 919.76 190.8 920.16 190.8ZM928.456 205.14C927.496 205.14 926.65 204.933 925.916 204.52C925.196 204.107 924.636 203.52 924.236 202.76C923.85 201.987 923.656 201.093 923.656 200.08C923.656 199.053 923.85 198.16 924.236 197.4C924.636 196.627 925.196 196.033 925.916 195.62C926.65 195.207 927.496 195 928.456 195C929.416 195 930.256 195.207 930.976 195.62C931.71 196.033 932.27 196.627 932.656 197.4C933.056 198.16 933.256 199.053 933.256 200.08C933.256 201.093 933.056 201.987 932.656 202.76C932.27 203.52 931.71 204.107 930.976 204.52C930.256 204.933 929.416 205.14 928.456 205.14ZM928.456 203.54C929.35 203.54 930.03 203.247 930.496 202.66C930.976 202.073 931.216 201.213 931.216 200.08C931.216 198.96 930.976 198.107 930.496 197.52C930.016 196.92 929.336 196.62 928.456 196.62C927.576 196.62 926.896 196.92 926.416 197.52C925.936 198.107 925.696 198.96 925.696 200.08C925.696 201.213 925.93 202.073 926.396 202.66C926.876 203.247 927.563 203.54 928.456 203.54ZM940.765 195C943.099 195 944.265 196.313 944.265 198.94V204.14C944.265 204.447 944.172 204.687 943.985 204.86C943.812 205.02 943.565 205.1 943.245 205.1C942.939 205.1 942.692 205.013 942.505 204.84C942.332 204.667 942.245 204.433 942.245 204.14V199.04C942.245 198.213 942.079 197.607 941.745 197.22C941.425 196.833 940.919 196.64 940.225 196.64C939.412 196.64 938.759 196.893 938.265 197.4C937.772 197.907 937.525 198.587 937.525 199.44V204.14C937.525 204.433 937.432 204.667 937.245 204.84C937.072 205.013 936.832 205.1 936.525 205.1C936.219 205.1 935.972 205.013 935.785 204.84C935.599 204.667 935.505 204.433 935.505 204.14V196C935.505 195.72 935.599 195.493 935.785 195.32C935.985 195.133 936.232 195.04 936.525 195.04C936.819 195.04 937.052 195.127 937.225 195.3C937.399 195.473 937.485 195.7 937.485 195.98V196.8C937.805 196.213 938.252 195.767 938.825 195.46C939.399 195.153 940.045 195 940.765 195ZM955.009 190.8C955.316 190.8 955.562 190.887 955.749 191.06C955.936 191.233 956.029 191.467 956.029 191.76V204.12C956.029 204.427 955.936 204.667 955.749 204.84C955.576 205.013 955.336 205.1 955.029 205.1C954.722 205.1 954.476 205.013 954.289 204.84C954.116 204.667 954.029 204.427 954.029 204.12V203.32C953.736 203.907 953.309 204.36 952.749 204.68C952.189 204.987 951.542 205.14 950.809 205.14C949.969 205.14 949.216 204.927 948.549 204.5C947.896 204.073 947.382 203.473 947.009 202.7C946.649 201.927 946.469 201.04 946.469 200.04C946.469 199.027 946.649 198.14 947.009 197.38C947.382 196.62 947.896 196.033 948.549 195.62C949.202 195.207 949.956 195 950.809 195C951.542 195 952.182 195.16 952.729 195.48C953.289 195.787 953.716 196.227 954.009 196.8V191.72C954.009 191.44 954.096 191.22 954.269 191.06C954.456 190.887 954.702 190.8 955.009 190.8ZM951.289 203.54C952.156 203.54 952.829 203.24 953.309 202.64C953.789 202.04 954.029 201.187 954.029 200.08C954.029 198.973 953.789 198.12 953.309 197.52C952.842 196.92 952.169 196.62 951.289 196.62C950.409 196.62 949.722 196.92 949.229 197.52C948.749 198.107 948.509 198.947 948.509 200.04C948.509 201.133 948.756 201.993 949.249 202.62C949.742 203.233 950.422 203.54 951.289 203.54ZM966.485 202.54C966.672 202.54 966.825 202.613 966.945 202.76C967.065 202.907 967.125 203.093 967.125 203.32C967.125 203.707 966.885 204.033 966.405 204.3C965.939 204.567 965.425 204.773 964.865 204.92C964.319 205.067 963.792 205.14 963.285 205.14C961.739 205.14 960.519 204.693 959.625 203.8C958.732 202.893 958.285 201.66 958.285 200.1C958.285 199.1 958.479 198.213 958.865 197.44C959.265 196.667 959.819 196.067 960.525 195.64C961.245 195.213 962.059 195 962.965 195C964.272 195 965.305 195.42 966.065 196.26C966.825 197.1 967.205 198.233 967.205 199.66C967.205 200.193 966.965 200.46 966.485 200.46H960.305C960.439 202.527 961.432 203.56 963.285 203.56C963.779 203.56 964.205 203.493 964.565 203.36C964.925 203.227 965.305 203.053 965.705 202.84C965.745 202.813 965.852 202.76 966.025 202.68C966.212 202.587 966.365 202.54 966.485 202.54ZM963.005 196.48C962.232 196.48 961.612 196.727 961.145 197.22C960.679 197.713 960.399 198.407 960.305 199.3H965.465C965.425 198.393 965.192 197.7 964.765 197.22C964.352 196.727 963.765 196.48 963.005 196.48ZM979.965 195C982.298 195 983.465 196.313 983.465 198.94V204.14C983.465 204.447 983.371 204.687 983.185 204.86C983.011 205.02 982.765 205.1 982.445 205.1C982.138 205.1 981.891 205.013 981.705 204.84C981.531 204.667 981.445 204.433 981.445 204.14V199.04C981.445 198.213 981.278 197.607 980.945 197.22C980.625 196.833 980.118 196.64 979.425 196.64C978.611 196.64 977.958 196.893 977.465 197.4C976.971 197.907 976.725 198.587 976.725 199.44V204.14C976.725 204.433 976.631 204.667 976.445 204.84C976.271 205.013 976.031 205.1 975.725 205.1C975.418 205.1 975.171 205.013 974.985 204.84C974.798 204.667 974.705 204.433 974.705 204.14V196C974.705 195.72 974.798 195.493 974.985 195.32C975.185 195.133 975.431 195.04 975.725 195.04C976.018 195.04 976.251 195.127 976.425 195.3C976.598 195.473 976.685 195.7 976.685 195.98V196.8C977.005 196.213 977.451 195.767 978.025 195.46C978.598 195.153 979.245 195 979.965 195ZM993.788 195.04C994.095 195.04 994.335 195.127 994.508 195.3C994.695 195.473 994.788 195.713 994.788 196.02V204.16C994.788 204.44 994.695 204.667 994.508 204.84C994.321 205.013 994.075 205.1 993.768 205.1C993.488 205.1 993.261 205.02 993.088 204.86C992.915 204.687 992.828 204.46 992.828 204.18V203.42C992.521 203.98 992.095 204.407 991.548 204.7C991.015 204.993 990.415 205.14 989.748 205.14C987.375 205.14 986.188 203.833 986.188 201.22V196.02C986.188 195.713 986.275 195.473 986.448 195.3C986.635 195.127 986.888 195.04 987.208 195.04C987.515 195.04 987.755 195.127 987.928 195.3C988.115 195.473 988.208 195.713 988.208 196.02V201.2C988.208 201.987 988.368 202.567 988.688 202.94C989.008 203.313 989.501 203.5 990.168 203.5C990.955 203.5 991.581 203.247 992.048 202.74C992.528 202.233 992.768 201.56 992.768 200.72V196.02C992.768 195.727 992.861 195.493 993.048 195.32C993.235 195.133 993.481 195.04 993.788 195.04ZM1008.81 195C1011 195 1012.09 196.313 1012.09 198.94V204.14C1012.09 204.447 1012 204.687 1011.81 204.86C1011.63 205.02 1011.38 205.1 1011.07 205.1C1010.78 205.1 1010.54 205.02 1010.35 204.86C1010.17 204.687 1010.07 204.447 1010.07 204.14V198.96C1010.07 198.147 1009.93 197.56 1009.63 197.2C1009.34 196.827 1008.88 196.64 1008.25 196.64C1007.52 196.64 1006.94 196.893 1006.51 197.4C1006.09 197.893 1005.87 198.573 1005.87 199.44V204.14C1005.87 204.447 1005.78 204.687 1005.59 204.86C1005.41 205.02 1005.16 205.1 1004.85 205.1C1004.56 205.1 1004.32 205.02 1004.13 204.86C1003.95 204.687 1003.85 204.447 1003.85 204.14V198.96C1003.85 198.147 1003.71 197.56 1003.41 197.2C1003.12 196.827 1002.66 196.64 1002.03 196.64C1001.3 196.64 1000.71 196.893 1000.27 197.4C999.848 197.893 999.635 198.573 999.635 199.44V204.14C999.635 204.447 999.542 204.687 999.355 204.86C999.168 205.02 998.928 205.1 998.635 205.1C998.342 205.1 998.095 205.02 997.895 204.86C997.708 204.687 997.615 204.447 997.615 204.14V196C997.615 195.707 997.715 195.473 997.915 195.3C998.115 195.127 998.355 195.04 998.635 195.04C998.915 195.04 999.142 195.127 999.315 195.3C999.502 195.46 999.595 195.687 999.595 195.98V196.72C999.888 196.16 1000.29 195.733 1000.81 195.44C1001.33 195.147 1001.93 195 1002.61 195C1003.36 195 1003.97 195.153 1004.45 195.46C1004.95 195.767 1005.31 196.24 1005.55 196.88C1005.85 196.307 1006.28 195.853 1006.85 195.52C1007.43 195.173 1008.08 195 1008.81 195ZM1022.5 202.54C1022.69 202.54 1022.84 202.613 1022.96 202.76C1023.08 202.907 1023.14 203.093 1023.14 203.32C1023.14 203.707 1022.9 204.033 1022.42 204.3C1021.95 204.567 1021.44 204.773 1020.88 204.92C1020.33 205.067 1019.81 205.14 1019.3 205.14C1017.75 205.14 1016.53 204.693 1015.64 203.8C1014.75 202.893 1014.3 201.66 1014.3 200.1C1014.3 199.1 1014.49 198.213 1014.88 197.44C1015.28 196.667 1015.83 196.067 1016.54 195.64C1017.26 195.213 1018.07 195 1018.98 195C1020.29 195 1021.32 195.42 1022.08 196.26C1022.84 197.1 1023.22 198.233 1023.22 199.66C1023.22 200.193 1022.98 200.46 1022.5 200.46H1016.32C1016.45 202.527 1017.45 203.56 1019.3 203.56C1019.79 203.56 1020.22 203.493 1020.58 203.36C1020.94 203.227 1021.32 203.053 1021.72 202.84C1021.76 202.813 1021.87 202.76 1022.04 202.68C1022.23 202.587 1022.38 202.54 1022.5 202.54ZM1019.02 196.48C1018.25 196.48 1017.63 196.727 1017.16 197.22C1016.69 197.713 1016.41 198.407 1016.32 199.3H1021.48C1021.44 198.393 1021.21 197.7 1020.78 197.22C1020.37 196.727 1019.78 196.48 1019.02 196.48ZM1019.4 193.92C1019.29 194.013 1019.17 194.06 1019.02 194.06C1018.87 194.06 1018.74 194.007 1018.62 193.9C1018.51 193.793 1018.46 193.667 1018.46 193.52C1018.46 193.387 1018.51 193.267 1018.6 193.16L1020.76 190.34C1021.03 189.98 1021.33 189.8 1021.68 189.8C1021.93 189.8 1022.15 189.887 1022.32 190.06C1022.49 190.233 1022.58 190.44 1022.58 190.68C1022.58 190.987 1022.42 191.273 1022.1 191.54L1019.4 193.92ZM1030.57 195.04C1031.21 195 1031.53 195.273 1031.53 195.86C1031.53 196.153 1031.45 196.373 1031.31 196.52C1031.16 196.667 1030.91 196.753 1030.55 196.78L1029.95 196.84C1029.11 196.92 1028.48 197.213 1028.07 197.72C1027.67 198.227 1027.47 198.84 1027.47 199.56V204.14C1027.47 204.46 1027.37 204.7 1027.19 204.86C1027 205.02 1026.76 205.1 1026.47 205.1C1026.17 205.1 1025.93 205.02 1025.73 204.86C1025.54 204.7 1025.45 204.46 1025.45 204.14V196C1025.45 195.693 1025.54 195.46 1025.73 195.3C1025.93 195.127 1026.17 195.04 1026.47 195.04C1026.73 195.04 1026.95 195.127 1027.13 195.3C1027.31 195.46 1027.41 195.687 1027.41 195.98V196.94C1027.67 196.353 1028.06 195.907 1028.57 195.6C1029.07 195.293 1029.65 195.113 1030.29 195.06L1030.57 195.04ZM1033.79 205.1C1033.5 205.1 1033.25 205.02 1033.05 204.86C1032.86 204.7 1032.77 204.46 1032.77 204.14V196.02C1032.77 195.7 1032.86 195.46 1033.05 195.3C1033.25 195.127 1033.5 195.04 1033.79 195.04C1034.08 195.04 1034.32 195.127 1034.51 195.3C1034.7 195.46 1034.79 195.7 1034.79 196.02V204.14C1034.79 204.46 1034.7 204.7 1034.51 204.86C1034.32 205.02 1034.08 205.1 1033.79 205.1ZM1033.79 193.08C1033.4 193.08 1033.1 192.973 1032.87 192.76C1032.64 192.547 1032.53 192.267 1032.53 191.92C1032.53 191.573 1032.64 191.3 1032.87 191.1C1033.1 190.887 1033.4 190.78 1033.79 190.78C1034.16 190.78 1034.46 190.887 1034.69 191.1C1034.93 191.3 1035.05 191.573 1035.05 191.92C1035.05 192.267 1034.94 192.547 1034.71 192.76C1034.48 192.973 1034.18 193.08 1033.79 193.08ZM1045.61 195.04C1045.92 195.04 1046.16 195.133 1046.33 195.32C1046.52 195.493 1046.61 195.727 1046.61 196.02V207.74C1046.61 208.033 1046.52 208.267 1046.33 208.44C1046.15 208.613 1045.9 208.7 1045.59 208.7C1045.29 208.7 1045.04 208.613 1044.85 208.44C1044.68 208.28 1044.59 208.06 1044.59 207.78V203.36C1044.3 203.933 1043.87 204.373 1043.31 204.68C1042.77 204.987 1042.13 205.14 1041.39 205.14C1040.54 205.14 1039.78 204.933 1039.11 204.52C1038.46 204.107 1037.95 203.52 1037.59 202.76C1037.23 202 1037.05 201.12 1037.05 200.12C1037.05 199.107 1037.23 198.213 1037.59 197.44C1037.97 196.667 1038.48 196.067 1039.13 195.64C1039.8 195.213 1040.55 195 1041.39 195C1042.13 195 1042.77 195.16 1043.33 195.48C1043.89 195.8 1044.32 196.253 1044.61 196.84V196.02C1044.61 195.727 1044.7 195.493 1044.87 195.32C1045.06 195.133 1045.31 195.04 1045.61 195.04ZM1041.87 203.54C1042.75 203.54 1043.43 203.24 1043.89 202.64C1044.37 202.04 1044.61 201.187 1044.61 200.08C1044.61 198.973 1044.37 198.12 1043.89 197.52C1043.43 196.92 1042.75 196.62 1041.87 196.62C1041.01 196.62 1040.33 196.933 1039.83 197.56C1039.34 198.173 1039.09 199.027 1039.09 200.12C1039.09 201.213 1039.33 202.06 1039.81 202.66C1040.31 203.247 1040.99 203.54 1041.87 203.54ZM1056.99 195.04C1057.3 195.04 1057.54 195.127 1057.71 195.3C1057.9 195.473 1057.99 195.713 1057.99 196.02V204.16C1057.99 204.44 1057.9 204.667 1057.71 204.84C1057.52 205.013 1057.28 205.1 1056.97 205.1C1056.69 205.1 1056.46 205.02 1056.29 204.86C1056.12 204.687 1056.03 204.46 1056.03 204.18V203.42C1055.72 203.98 1055.3 204.407 1054.75 204.7C1054.22 204.993 1053.62 205.14 1052.95 205.14C1050.58 205.14 1049.39 203.833 1049.39 201.22V196.02C1049.39 195.713 1049.48 195.473 1049.65 195.3C1049.84 195.127 1050.09 195.04 1050.41 195.04C1050.72 195.04 1050.96 195.127 1051.13 195.3C1051.32 195.473 1051.41 195.713 1051.41 196.02V201.2C1051.41 201.987 1051.57 202.567 1051.89 202.94C1052.21 203.313 1052.7 203.5 1053.37 203.5C1054.16 203.5 1054.78 203.247 1055.25 202.74C1055.73 202.233 1055.97 201.56 1055.97 200.72V196.02C1055.97 195.727 1056.06 195.493 1056.25 195.32C1056.44 195.133 1056.68 195.04 1056.99 195.04ZM1068.46 202.54C1068.64 202.54 1068.8 202.613 1068.92 202.76C1069.04 202.907 1069.1 203.093 1069.1 203.32C1069.1 203.707 1068.86 204.033 1068.38 204.3C1067.91 204.567 1067.4 204.773 1066.84 204.92C1066.29 205.067 1065.76 205.14 1065.26 205.14C1063.71 205.14 1062.49 204.693 1061.6 203.8C1060.7 202.893 1060.26 201.66 1060.26 200.1C1060.26 199.1 1060.45 198.213 1060.84 197.44C1061.24 196.667 1061.79 196.067 1062.5 195.64C1063.22 195.213 1064.03 195 1064.94 195C1066.24 195 1067.28 195.42 1068.04 196.26C1068.8 197.1 1069.18 198.233 1069.18 199.66C1069.18 200.193 1068.94 200.46 1068.46 200.46H1062.28C1062.41 202.527 1063.4 203.56 1065.26 203.56C1065.75 203.56 1066.18 203.493 1066.54 203.36C1066.9 203.227 1067.28 203.053 1067.68 202.84C1067.72 202.813 1067.82 202.76 1068 202.68C1068.18 202.587 1068.34 202.54 1068.46 202.54ZM1064.98 196.48C1064.2 196.48 1063.58 196.727 1063.12 197.22C1062.65 197.713 1062.37 198.407 1062.28 199.3H1067.44C1067.4 198.393 1067.16 197.7 1066.74 197.22C1066.32 196.727 1065.74 196.48 1064.98 196.48Z" fill="black" fill-opacity="0.87"/>
<circle opacity="0.3" cx="530" cy="86" r="86" fill="url(#paint0_linear)"/>
<circle opacity="0.5" cx="529.5" cy="86.5" r="71.5" fill="url(#paint1_linear)"/>
<path d="M585 85.5C585 116.152 560.152 141 529.5 141C498.848 141 474 116.152 474 85.5C474 54.8482 498.848 30 529.5 30C560.152 30 585 54.8482 585 85.5Z" fill="white"/>
<path d="M581.769 104.237C581.769 104.261 581.745 104.285 581.745 104.309C581.745 104.333 581.721 104.358 581.721 104.358C574.03 125.789 553.561 141.09 529.5 141.09C498.857 141.09 474 116.232 474 85.5329C474 84.1814 474.048 82.854 474.145 81.5266C474.145 81.5025 474.145 81.5025 474.145 81.4784L474.169 81.3336C474.169 81.3577 474.169 81.3818 474.169 81.406L536.926 70.0146L503.052 103.947C502.787 104.333 502.546 104.744 502.353 105.178C501.629 106.723 501.388 108.46 501.702 110.246C502.353 113.794 505.125 116.449 508.501 117.076C509.031 117.173 509.561 117.221 510.092 117.221C510.212 117.221 510.357 117.221 510.478 117.221L512.768 116.811L581.769 104.237Z" fill="url(#paint2_linear)"/>
<path d="M585 85.5568C585 87.0531 584.952 88.5495 584.831 90.0216C584.831 90.0458 584.831 90.0699 584.831 90.0699C584.831 90.094 584.831 90.1182 584.831 90.1182L524.678 101.099L557.347 68.7112L557.66 68.3974C558.359 67.6734 558.914 66.8529 559.324 65.9599C560.023 64.4394 560.264 62.6776 559.951 60.9159C559.3 57.2957 556.431 54.6168 552.983 53.9893C552.501 53.8928 551.994 53.8687 551.464 53.8687H551.368L548.499 54.3996L477.062 67.4562C477.062 67.4803 477.038 67.5045 477.038 67.5286L477.062 67.4079C477.062 67.3838 477.086 67.3597 477.086 67.3597C484.608 45.5907 505.246 30 529.5 30C560.143 30 585 54.8582 585 85.5568Z" fill="url(#paint3_linear)"/>
<circle cx="988" cy="86" r="74" fill="url(#paint4_linear)"/>
<path d="M987.948 41C986.335 41 984.723 41.0867 983.119 41.2596C981.648 41.4098 980.196 41.6561 978.764 41.955C978.486 42.013 978.209 42.0742 977.932 42.1382C969.491 44.0602 961.783 48.3764 955.733 54.5692C955.17 55.1459 954.62 55.7397 954.081 56.3504C937.739 75.1139 939.7 103.574 958.462 119.918C976.424 135.566 1003.46 134.525 1020.17 117.542C1020.73 116.966 1021.28 116.372 1021.82 115.761C1029.03 107.547 1033.01 96.9873 1033 86.0558C1033 61.1719 1012.83 40.9998 987.948 41ZM957.735 56.822C957.972 56.5757 958.218 56.3399 958.46 56.1011C958.74 55.8262 959.017 55.5499 959.303 55.2841C959.553 55.0498 959.812 54.8245 960.069 54.5962C960.358 54.3394 960.647 54.0826 960.944 53.8348C961.205 53.614 961.474 53.4022 961.741 53.189C962.042 52.9487 962.342 52.7084 962.652 52.4771C962.925 52.2713 963.203 52.0716 963.482 51.8763C963.793 51.654 964.105 51.4258 964.422 51.2185C964.706 51.0263 964.993 50.84 965.281 50.6553C965.602 50.4496 965.925 50.2468 966.251 50.0546C966.545 49.8794 966.84 49.7071 967.137 49.5379C967.47 49.3487 967.803 49.164 968.139 48.9837C968.439 48.8236 968.74 48.6668 969.04 48.5136C969.382 48.3409 969.728 48.1742 970.075 48.0105C970.375 47.8678 970.687 47.7252 970.997 47.59C971.35 47.4398 971.707 47.2896 972.064 47.1394C972.375 47.0118 972.685 46.8871 972.998 46.767C973.362 46.6288 973.73 46.4996 974.098 46.3705C974.412 46.2608 974.725 46.1512 975.044 46.0476C975.418 45.9274 975.795 45.8163 976.173 45.7067C976.49 45.615 976.804 45.5204 977.122 45.4348C977.244 45.4033 977.365 45.3778 977.487 45.3462C973.042 49.6628 969.743 55.0199 967.89 60.9326C964.325 59.9924 960.875 58.6644 957.6 56.9722C957.649 56.9196 957.691 56.867 957.735 56.822ZM955.575 59.24C959.183 61.1947 963.008 62.7172 966.972 63.7756C965.029 70.5333 964.009 77.5228 963.94 84.5539H945.934C946.261 75.282 949.652 66.38 955.575 59.24ZM955.575 112.872C949.652 105.731 946.262 96.8294 945.934 87.5577H963.94C964.009 94.5888 965.029 101.578 966.972 108.336C963.008 109.395 959.183 110.917 955.575 112.872ZM977.113 126.683C976.81 126.606 976.496 126.507 976.184 126.415C975.804 126.304 975.422 126.193 975.047 126.072C974.73 125.969 974.418 125.86 974.105 125.75C973.736 125.622 973.366 125.492 973.001 125.352C972.689 125.233 972.381 125.109 972.072 124.983C971.713 124.832 971.354 124.682 970.998 124.532C970.692 124.397 970.387 124.258 970.084 124.115C969.734 123.949 969.385 123.781 969.032 123.607C968.732 123.457 968.432 123.307 968.131 123.143C967.792 122.961 967.456 122.775 967.119 122.583C966.819 122.416 966.533 122.245 966.244 122.071C965.913 121.872 965.589 121.668 965.265 121.459C964.979 121.278 964.694 121.093 964.413 120.904C964.093 120.687 963.776 120.462 963.462 120.237C963.188 120.04 962.913 119.843 962.643 119.636C962.332 119.402 962.027 119.16 961.723 118.917C961.458 118.705 961.193 118.495 960.934 118.277C960.633 118.028 960.343 117.768 960.052 117.509C959.797 117.283 959.54 117.059 959.291 116.828C959.004 116.56 958.726 116.282 958.447 116.008C958.205 115.769 957.959 115.533 957.721 115.288C957.678 115.242 957.636 115.193 957.592 115.148C960.867 113.455 964.317 112.127 967.882 111.187C969.736 117.099 973.035 122.456 977.48 126.773C977.358 126.741 977.235 126.716 977.113 126.683ZM986.446 127.989C980.021 127.076 974.388 120.369 970.843 110.464C975.967 109.317 981.196 108.701 986.446 108.627V127.989ZM986.446 105.624C980.877 105.697 975.331 106.358 969.9 107.597C968.015 101.081 967.02 94.3403 966.943 87.5577H986.446V105.624ZM986.446 84.5539H966.943C967.02 77.7713 968.015 71.0302 969.9 64.5145C975.331 65.753 980.877 66.4146 986.446 66.488V84.5539ZM986.446 63.4842C981.196 63.411 975.967 62.7955 970.843 61.6475C974.388 51.7427 980.021 45.0353 986.446 44.1222V63.4842ZM1020.32 59.24C1026.24 66.3802 1029.63 75.2822 1029.96 84.5539H1011.96C1011.89 77.5228 1010.87 70.5333 1008.92 63.7756C1012.89 62.7166 1016.71 61.1943 1020.32 59.24ZM998.771 45.4273C999.086 45.5054 999.4 45.6045 999.713 45.6961C1000.09 45.8073 1000.47 45.9184 1000.85 46.0401C1001.17 46.1422 1001.48 46.2518 1001.79 46.3615C1002.16 46.4891 1002.53 46.6198 1002.89 46.7595C1003.21 46.8781 1003.52 47.0028 1003.82 47.1289C1004.18 47.2791 1004.54 47.4293 1004.9 47.5795C1005.2 47.7147 1005.51 47.8538 1005.81 47.997C1006.16 48.1622 1006.51 48.3304 1006.86 48.5046C1007.16 48.6548 1007.46 48.805 1007.76 48.9687C1008.1 49.1504 1008.44 49.3367 1008.78 49.5289C1009.08 49.6956 1009.36 49.8668 1009.65 50.041C1009.98 50.2393 1010.31 50.4435 1010.63 50.6523C1010.92 50.834 1011.2 51.0188 1011.48 51.208C1011.8 51.4243 1012.12 51.648 1012.43 51.8733C1012.71 52.0701 1012.98 52.2683 1013.26 52.4741C1013.56 52.7069 1013.87 52.9487 1014.17 53.192C1014.44 53.4022 1014.7 53.6125 1014.96 53.8318C1015.26 54.0811 1015.55 54.3409 1015.84 54.5992C1016.1 54.826 1016.36 55.0498 1016.61 55.2811C1016.89 55.5484 1017.17 55.8262 1017.45 56.1011C1017.69 56.3399 1017.94 56.5757 1018.17 56.8205C1018.22 56.867 1018.26 56.9151 1018.3 56.9601C1015.03 58.6531 1011.58 59.9817 1008.01 60.9221C1006.16 55.0088 1002.85 49.6523 998.405 45.3372C998.526 45.3687 998.649 45.3943 998.771 45.4273ZM989.45 44.1222C995.876 45.0353 1001.51 51.7427 1005.05 61.6475C999.929 62.7949 994.7 63.4105 989.45 63.4842V44.1222ZM989.45 66.488C995.019 66.4148 1000.57 65.7532 1006 64.5145C1007.88 71.0302 1008.88 77.7713 1008.95 84.5539H989.45V66.488ZM989.45 87.5577H1008.95C1008.88 94.3403 1007.88 101.081 1006 107.597C1000.57 106.359 995.019 105.697 989.45 105.624V87.5577ZM989.45 127.989V108.627C994.7 108.701 999.929 109.316 1005.05 110.464C1001.51 120.369 995.876 127.076 989.45 127.989ZM1018.16 115.29C1017.92 115.534 1017.68 115.77 1017.44 116.009C1017.16 116.284 1016.88 116.562 1016.59 116.829C1016.34 117.062 1016.09 117.28 1015.83 117.512C1015.54 117.771 1015.25 118.029 1014.95 118.278C1014.69 118.498 1014.42 118.709 1014.15 118.923C1013.85 119.163 1013.55 119.403 1013.24 119.635C1012.97 119.84 1012.69 120.04 1012.41 120.235C1012.1 120.458 1011.79 120.686 1011.47 120.893C1011.19 121.085 1010.9 121.272 1010.62 121.455C1010.29 121.662 1009.97 121.862 1009.64 122.056C1009.34 122.231 1009.06 122.402 1008.76 122.572C1008.43 122.761 1008.09 122.946 1007.76 123.126C1007.46 123.286 1007.16 123.443 1006.86 123.596C1006.51 123.769 1006.17 123.936 1005.82 124.1C1005.52 124.242 1005.21 124.385 1004.9 124.52C1004.55 124.67 1004.19 124.82 1003.83 124.971C1003.52 125.097 1003.21 125.223 1002.9 125.342C1002.53 125.481 1002.17 125.612 1001.8 125.74C1001.48 125.849 1001.17 125.959 1000.85 126.061C1000.48 126.183 1000.1 126.294 999.72 126.403C999.406 126.497 999.091 126.59 998.774 126.675C998.652 126.707 998.531 126.732 998.409 126.764C1002.85 122.447 1006.15 117.09 1008.01 111.178C1011.57 112.118 1015.02 113.446 1018.3 115.138C1018.25 115.192 1018.21 115.245 1018.16 115.29ZM1020.32 112.872C1016.71 110.917 1012.89 109.394 1008.92 108.336C1010.87 101.578 1011.89 94.5888 1011.96 87.5577H1029.96C1029.64 96.8294 1026.24 105.732 1020.32 112.872Z" fill="white"/>
<circle cx="79" cy="86" r="74" fill="url(#paint5_linear)"/>
<g clip-path="url(#clip0)">
<path d="M79.0159 41.0107C61.0103 41.0081 44.7372 51.7408 37.6502 68.2931L37.0894 68.479L37.3068 69.1314C27.9758 92.1452 39.0676 118.366 62.0815 127.697C67.4565 129.876 73.2024 130.995 79.0026 130.992C103.85 130.996 123.996 110.856 124 86.0081C124.004 61.1605 103.864 41.0143 79.0159 41.0107ZM114.306 108.685L111.996 106.376V100.998C111.998 100.766 111.947 100.537 111.846 100.328L105.997 88.6468V83.002C105.997 82.5007 105.747 82.0324 105.33 81.7543L100.831 78.7549C100.478 78.5194 100.042 78.4443 99.6308 78.5479L94.121 79.9246L84.8664 75.9535L83.5932 67.0333L87.1219 63.5061H94.6968L97.2463 67.3378C97.4765 67.6823 97.8393 67.9164 98.2481 67.9841L107.246 69.4838C107.487 69.5243 107.734 69.5046 107.966 69.4268L116.253 66.6644C123.204 80.0032 122.461 96.0463 114.306 108.685ZM108.121 55.7887L105.682 57.4143L98.884 56.0541L94.4734 54.5859C94.2035 54.4942 93.9129 54.4826 93.6366 54.5529L88.0607 55.9461L85.6162 55.1318L87.4279 51.5086H92.4998C92.7324 51.5087 92.9619 51.4549 93.1702 51.3511L98.3591 48.7566C101.932 50.6219 105.22 52.9899 108.121 55.7887ZM62.5765 47.3589L66.1758 49.7584C66.3528 49.8761 66.5526 49.9549 66.7622 49.9894L74.0297 51.2011L73.3203 53.3232L69.5336 54.5874C69.1945 54.7003 68.9067 54.9305 68.7223 55.2368L64.4152 62.4143L57.4971 66.5654L47.2992 68.0216C46.5601 68.126 46.0104 68.7583 46.0095 69.5048V74.0039C46.0095 74.4017 46.1677 74.783 46.4489 75.0641L49.0089 77.6241V80.2006L42.7702 76.0404L40.5071 69.2514C44.8127 59.4134 52.7043 51.585 62.5765 47.3589ZM58.3069 96.5292L51.5283 95.172L49.0089 90.1465V86.6222L54.5967 81.0344L56.6648 85.172C56.9188 85.6804 57.4386 86.0016 58.007 86.0014H67.656L71.7186 92.7725C71.9897 93.2237 72.4775 93.4996 73.0039 93.4998H77.173L76.1232 98.7592L70.4454 104.437C70.1637 104.718 70.0051 105.099 70.0045 105.497V109.247L64.6056 113.296C64.2281 113.579 64.0057 114.023 64.0057 114.495V119.912L62.1401 119.294L59.5067 112.708V97.9989C59.5069 97.2861 59.0052 96.6716 58.3069 96.5292ZM53.7989 119.583C39.6589 108.975 33.6791 90.6459 38.8425 73.7399L40.0887 77.4771C40.1937 77.7934 40.401 78.0658 40.6781 78.251L48.154 83.2344L46.4489 84.9411C46.1677 85.2223 46.0095 85.6036 46.0095 86.0014V90.5004C46.0093 90.7331 46.0631 90.9625 46.167 91.1708L49.1663 97.1695C49.374 97.5838 49.7615 97.8789 50.2161 97.9689L56.5148 99.2271V112.996C56.5146 113.186 56.5508 113.375 56.6213 113.552L59.6207 121.051C59.7849 121.46 60.1212 121.777 60.54 121.916L65.039 123.416C65.1894 123.467 65.3468 123.493 65.5054 123.494C66.3336 123.494 67.0051 122.822 67.0051 121.994V115.245L72.404 111.196C72.7815 110.913 73.0039 110.468 73.0039 109.996V106.118L78.5632 100.559C78.7722 100.349 78.9147 100.083 78.9726 99.7925L80.4723 92.2941C80.6347 91.4818 80.1079 90.6918 79.2956 90.5295C79.1991 90.5102 79.101 90.5004 79.0026 90.5004H73.8527L69.79 83.7293C69.519 83.2781 69.0312 83.0022 68.5048 83.002H58.9338L56.3573 77.8326C56.1416 77.401 55.7314 77.0996 55.2551 77.0227C54.7789 76.9404 54.2928 77.0975 53.9548 77.4426L52.0082 79.3817V77.0032C52.0082 76.6054 51.85 76.2242 51.5688 75.943L49.0089 73.383V70.805L58.2199 69.4898C58.4177 69.4611 58.608 69.3933 58.7793 69.2903L66.2778 64.7913C66.4881 64.6649 66.6643 64.4887 66.7907 64.2784L71.0048 57.2554L74.9775 55.9296C75.4261 55.7825 75.7781 55.4306 75.9253 54.9818L77.4249 50.4828C77.6848 49.6964 77.2579 48.8481 76.4715 48.5883C76.399 48.5643 76.3246 48.5459 76.2492 48.5332L67.569 47.086L66.0438 46.0692C75.4812 42.9975 85.7027 43.3776 94.8858 47.1415L92.1459 48.5092H86.5011C85.9299 48.506 85.4067 48.8277 85.1513 49.3385L82.152 55.3373C81.7825 56.0785 82.0837 56.979 82.8249 57.3485C82.8881 57.38 82.9534 57.407 83.0203 57.4293L87.5193 58.929C87.7893 59.0207 88.0798 59.0323 88.3562 58.962L93.932 57.5688L98.0172 58.929C98.0756 58.95 98.1358 58.9661 98.1971 58.977L105.696 60.4767C106.085 60.5562 106.491 60.4763 106.822 60.2547L110.235 57.9782C111.915 59.8493 113.425 61.8663 114.746 64.0055L107.368 66.4649L99.3789 65.1332L96.7394 61.174C96.4627 60.7592 95.9978 60.5091 95.4992 60.5067H86.5011C86.1033 60.5067 85.722 60.6649 85.4408 60.9461L80.9417 65.4452C80.6077 65.779 80.4504 66.2509 80.5173 66.7184L82.017 77.2162C82.0925 77.7353 82.4337 78.1771 82.9168 78.3815L93.4146 82.8805C93.7153 83.0108 94.0509 83.0376 94.3684 82.957L99.7238 81.6178L102.998 83.8043V89.0007C102.995 89.2328 103.046 89.4623 103.148 89.6711L108.996 101.352V106.997C108.996 107.395 109.155 107.776 109.436 108.057L112.573 111.196C98.6592 129.742 72.3449 133.497 53.7989 119.583Z" fill="white" fill-opacity="0.9"/>
</g>
<path d="M193.5 86H474H153M914 86H584.5" stroke="black" stroke-width="2"/>
<defs>
<linearGradient id="paint0_linear" x1="388.542" y1="323.081" x2="790.745" y2="-2.07468" gradientUnits="userSpaceOnUse">
<stop stop-color="#EE2238"/>
<stop offset="1" stop-color="#BF1D67"/>
</linearGradient>
<linearGradient id="paint1_linear" x1="411.893" y1="283.608" x2="746.283" y2="13.2751" gradientUnits="userSpaceOnUse">
<stop stop-color="#EE2238"/>
<stop offset="1" stop-color="#BF1D67"/>
</linearGradient>
<linearGradient id="paint2_linear" x1="474.008" y1="105.564" x2="581.773" y2="105.564" gradientUnits="userSpaceOnUse">
<stop stop-color="#EE2238"/>
<stop offset="1" stop-color="#BF1D67"/>
</linearGradient>
<linearGradient id="paint3_linear" x1="477.024" y1="65.5559" x2="584.993" y2="65.5559" gradientUnits="userSpaceOnUse">
<stop stop-color="#EE2238"/>
<stop offset="1" stop-color="#BF1D67"/>
</linearGradient>
<linearGradient id="paint4_linear" x1="866.28" y1="290" x2="1212.36" y2="10.2148" gradientUnits="userSpaceOnUse">
<stop stop-color="#EE2238"/>
<stop offset="1" stop-color="#BF1D67"/>
</linearGradient>
<linearGradient id="paint5_linear" x1="-42.7196" y1="290" x2="303.362" y2="10.2148" gradientUnits="userSpaceOnUse">
<stop stop-color="#EE2238"/>
<stop offset="1" stop-color="#BF1D67"/>
</linearGradient>
<clipPath id="clip0">
<rect width="90" height="90" fill="white" transform="translate(34 41)"/>
</clipPath>
</defs>
</svg>
